<svg width="528" height="497" viewBox="0 0 528 497" fill="none" xmlns="http://www.w3.org/2000/svg">
<g clip-path="url(#clip0)">
<path d="M423.159 384.871C418.86 384.871 414.657 383.595 411.082 381.204C407.507 378.814 404.72 375.416 403.075 371.44C401.43 367.465 400.999 363.091 401.838 358.87C402.677 354.65 404.747 350.773 407.787 347.731C410.828 344.688 414.701 342.616 418.918 341.776C423.135 340.937 427.506 341.368 431.479 343.014C435.451 344.661 438.846 347.45 441.235 351.027C443.624 354.605 444.899 358.812 444.899 363.115C444.892 368.883 442.6 374.413 438.524 378.492C434.449 382.57 428.923 384.865 423.159 384.871Z" fill="#CCCCCC"/>
<path d="M433.193 362.278H423.996V351.818C423.996 351.596 423.907 351.383 423.751 351.226C423.594 351.069 423.381 350.981 423.159 350.981C422.938 350.981 422.725 351.069 422.568 351.226C422.411 351.383 422.323 351.596 422.323 351.818V362.278H413.126C412.904 362.278 412.691 362.366 412.535 362.523C412.378 362.68 412.29 362.893 412.29 363.115C412.29 363.337 412.378 363.549 412.535 363.706C412.691 363.863 412.904 363.951 413.126 363.951H422.323V374.411C422.323 374.633 422.411 374.846 422.568 375.003C422.725 375.16 422.938 375.248 423.159 375.248C423.381 375.248 423.594 375.16 423.751 375.003C423.907 374.846 423.996 374.633 423.996 374.411V363.951H433.193C433.415 363.951 433.627 363.863 433.784 363.706C433.941 363.549 434.029 363.337 434.029 363.115C434.029 362.893 433.941 362.68 433.784 362.523C433.627 362.366 433.415 362.278 433.193 362.278Z" fill="white"/>
<path d="M506.877 486.823L497.319 486.822L492.773 449.923L506.88 449.924L506.877 486.823Z" fill="#FFC9C9"/>
<path d="M490.491 484.088H508.925V495.705H478.884C478.884 494.179 479.184 492.669 479.767 491.259C480.35 489.85 481.205 488.569 482.283 487.491C483.361 486.412 484.641 485.556 486.049 484.973C487.457 484.389 488.966 484.088 490.491 484.088Z" fill="#83806B"/>
<path d="M468.833 486.823L459.275 486.822L454.729 449.923L468.837 449.924L468.833 486.823Z" fill="#FFC9C9"/>
<path d="M452.447 484.088H470.882V495.705H440.84C440.84 494.179 441.14 492.669 441.723 491.259C442.307 489.85 443.162 488.569 444.239 487.491C445.317 486.412 446.597 485.556 448.005 484.973C449.413 484.389 450.923 484.088 452.447 484.088Z" fill="#83806B"/>
<path d="M514.241 359.255C513.471 358.405 512.898 357.396 512.56 356.299C512.223 355.203 512.129 354.046 512.287 352.91C512.444 351.774 512.849 350.686 513.472 349.723C514.095 348.76 514.921 347.946 515.893 347.337L512.932 329.653L523.232 325.232L527.062 350.264C527.976 351.965 528.234 353.943 527.788 355.822C527.342 357.701 526.222 359.35 524.642 360.459C523.062 361.567 521.13 362.057 519.213 361.835C517.296 361.613 515.527 360.695 514.241 359.255Z" fill="#FFC9C9"/>
<path d="M433.606 350.899C434.505 350.188 435.238 349.287 435.752 348.262C436.266 347.237 436.549 346.111 436.581 344.964C436.613 343.818 436.394 342.678 435.938 341.625C435.482 340.573 434.802 339.633 433.944 338.872L439.783 321.92L430.355 315.857L422.445 339.912C421.264 341.438 420.683 343.346 420.812 345.273C420.942 347.2 421.774 349.012 423.149 350.367C424.525 351.721 426.349 352.523 428.277 352.621C430.204 352.719 432.1 352.107 433.606 350.899Z" fill="#FFC9C9"/>
<path d="M482.562 226.018C493.904 226.018 503.098 216.816 503.098 205.466C503.098 194.115 493.904 184.913 482.562 184.913C471.22 184.913 462.026 194.115 462.026 205.466C462.026 216.816 471.22 226.018 482.562 226.018Z" fill="#FFC9C9"/>
<path d="M432.971 338.217C432.619 338.217 432.269 338.167 431.93 338.069L425.945 336.35C424.989 336.073 424.181 335.43 423.697 334.559C423.214 333.689 423.093 332.663 423.363 331.704L435.716 288.056L452.942 245.735C454.654 241.528 458.233 238.769 462.281 238.535C464.13 238.445 465.965 238.893 467.565 239.825C469.164 240.757 470.459 242.133 471.293 243.787C472.219 245.557 472.728 247.516 472.78 249.514C472.832 251.512 472.425 253.494 471.591 255.31L452.012 298.162L436.446 335.887C436.162 336.576 435.681 337.165 435.062 337.58C434.444 337.995 433.716 338.216 432.971 338.217Z" fill="#3F3D56"/>
<path d="M494.151 222.701L482.74 222.904C481.552 222.928 480.375 222.671 479.303 222.156C478.232 221.64 477.297 220.88 476.573 219.936C475.849 218.992 475.357 217.892 475.136 216.723C474.916 215.554 474.973 214.349 475.302 213.206C475.546 212.38 475.729 211.538 475.851 210.685C475.979 209.755 476.004 208.814 475.926 207.879C475.853 206.942 475.465 206.058 474.825 205.371C474.184 204.685 473.33 204.236 472.401 204.099C471.473 203.962 470.525 204.145 469.714 204.617C468.903 205.09 468.276 205.825 467.937 206.7C466.018 206.728 461.931 206.102 460.012 206.129C455.939 195.678 464.816 182.002 474.372 176.865C484.114 171.629 496.759 176.956 500.494 187.871C505.676 187.964 509.887 193.079 510.555 198.838C511.223 204.596 508.856 210.609 505.235 215.023C501.613 219.436 496.859 222.653 494.151 222.701Z" fill="#83806B"/>
<path d="M456.644 483.378C455.719 483.373 454.829 483.028 454.141 482.41C453.454 481.791 453.017 480.942 452.913 480.023L448.68 337.572L502.014 341.372L502.055 341.715C514.108 442.684 509.988 477.635 509.945 477.976C509.915 478.493 509.779 478.998 509.546 479.46C509.313 479.921 508.987 480.33 508.588 480.66C508.19 480.99 507.728 481.234 507.231 481.378C506.735 481.521 506.214 481.56 505.701 481.493L493.914 481.776C493.021 481.675 492.193 481.256 491.581 480.597C490.969 479.937 490.614 479.08 490.579 478.181L479.566 375.006C479.498 374.738 479.338 374.502 479.114 374.341C478.89 374.179 478.616 374.102 478.34 374.122C478.057 374.121 477.782 374.219 477.562 374.399C477.342 374.578 477.192 374.829 477.137 375.107L472.882 478.62C472.927 479.581 472.602 480.523 471.973 481.25C471.344 481.978 470.46 482.435 469.503 482.528L457.018 483.359C456.893 483.372 456.769 483.378 456.644 483.378Z" fill="#83806B"/>
<path d="M478.775 354.593C478.456 354.593 478.137 354.588 477.817 354.579C462.481 354.116 450.483 342.504 447.171 338.956C446.749 338.504 446.446 337.954 446.288 337.356C446.131 336.758 446.123 336.13 446.267 335.528L455.114 298.07L452.767 265.505C452.398 260.985 452.991 256.439 454.505 252.165C456.019 247.891 458.42 243.986 461.551 240.708C464.16 237.95 467.331 235.785 470.849 234.361C474.367 232.937 478.15 232.286 481.941 232.453C496.87 233.166 508.648 246.52 508.755 262.855C508.92 288.155 508.176 289.893 507.931 290.465C500.481 307.867 504.55 332.295 505.974 339.367C506.102 339.998 506.066 340.651 505.87 341.265C505.674 341.878 505.326 342.431 504.856 342.871C496.662 350.653 487.891 354.593 478.775 354.593Z" fill="#3F3D56"/>
<path d="M517.291 345.072C516.44 345.071 515.614 344.782 514.949 344.25C514.283 343.719 513.818 342.978 513.628 342.148L504.5 302.353L492.267 256.867C491.745 254.939 491.671 252.916 492.052 250.954C492.433 248.993 493.258 247.145 494.464 245.552C495.56 244.06 497.064 242.917 498.795 242.262C500.527 241.607 502.41 241.468 504.219 241.862C508.172 242.762 511.247 246.075 512.241 250.508L522.237 295.049L527.222 340.186C527.33 341.176 527.042 342.168 526.421 342.946C525.8 343.724 524.897 344.225 523.909 344.34L517.722 345.047C517.579 345.063 517.435 345.072 517.291 345.072Z" fill="#3F3D56"/>
<path d="M25.7793 349.363C26.8624 348.62 27.7695 347.648 28.4368 346.517C29.104 345.385 29.5152 344.12 29.6413 342.812C29.7674 341.504 29.6054 340.184 29.1666 338.945C28.7279 337.707 28.0231 336.579 27.102 335.643L30.5863 257.807L12.8474 259.8L13.8779 335.934C12.4084 337.587 11.5957 339.722 11.594 341.935C11.5922 344.147 12.4016 346.284 13.8686 347.939C15.3355 349.594 17.3583 350.654 19.5535 350.916C21.7488 351.179 23.9639 350.626 25.7793 349.363Z" fill="#FFC9C9"/>
<path d="M58.1393 481.122L68.2355 482.899L78.2138 444.771L64.9855 442.15L58.1393 481.122Z" fill="#FFC9C9"/>
<path d="M86.0581 495.706L54.3281 490.123L56.4833 477.855L75.954 481.28C77.5639 481.563 79.1023 482.161 80.4814 483.04C81.8604 483.918 83.0531 485.059 83.9914 486.399C84.9296 487.738 85.5951 489.25 85.9497 490.847C86.3043 492.444 86.3411 494.095 86.0581 495.706Z" fill="#83806B"/>
<path d="M30.4283 486.18H40.6793L45.5556 446.61L30.4267 446.611L30.4283 486.18Z" fill="#FFC9C9"/>
<path d="M60.4489 495.705L28.2323 495.706L28.2318 483.249L48.0011 483.248C51.3023 483.248 54.4684 484.56 56.8028 486.896C59.1372 489.232 60.4488 492.401 60.4489 495.705Z" fill="#83806B"/>
<path d="M74.0348 475.344C73.8748 475.344 73.715 475.335 73.5561 475.316L61.4908 474.322C60.9415 474.257 60.411 474.082 59.9316 473.805C59.4523 473.529 59.034 473.158 58.7022 472.716C58.3705 472.273 58.1321 471.767 58.0017 471.229C57.8713 470.691 57.8515 470.132 57.9435 469.586L69.0846 407.094L61.5566 367.369C61.4952 367.046 61.3192 366.757 61.0612 366.553C60.8032 366.35 60.4805 366.247 60.1526 366.264C59.8247 366.28 59.5138 366.414 59.2772 366.642C59.0406 366.87 58.8942 367.176 58.8651 367.503L49.4538 473.463C49.3504 474.526 48.8384 475.508 48.0257 476.2C47.2131 476.893 46.1633 477.243 45.0979 477.176L33.731 476.752C32.7348 476.681 31.799 476.248 31.1001 475.534C30.4013 474.82 29.9879 473.875 29.9379 472.877L29.1738 345.88L88.105 338.508L92.2218 402.138L92.2054 402.205L77.999 472.223C77.7826 473.112 77.2743 473.903 76.5556 474.469C75.8369 475.035 74.9493 475.343 74.0348 475.344Z" fill="#83806B"/>
<path d="M48.6034 207.368C59.9452 207.368 69.1395 198.167 69.1395 186.816C69.1395 175.465 59.9452 166.264 48.6034 166.264C37.2615 166.264 28.0672 175.465 28.0672 186.816C28.0672 198.167 37.2615 207.368 48.6034 207.368Z" fill="#FFC9C9"/>
<path d="M67.9534 355.162C64.7416 355.181 61.5915 354.28 58.8757 352.563C48.928 346.341 37.6292 348.814 31.7794 350.842C31.1989 351.046 30.58 351.115 29.9689 351.045C29.3578 350.976 28.7704 350.769 28.2505 350.44C27.7366 350.117 27.3023 349.682 26.9802 349.167C26.6581 348.652 26.4566 348.072 26.3906 347.468L15.753 252.388C13.9704 236.457 23.5589 221.48 38.5522 216.775C39.1155 216.598 39.6883 216.43 40.2706 216.272C44.9364 215.006 49.8227 214.778 54.5858 215.605C59.3488 216.433 63.8728 218.295 67.8394 221.06C71.8799 223.856 75.2589 227.504 77.7388 231.748C80.2187 235.991 81.7391 240.727 82.1931 245.622L91.1484 341.339C91.2094 341.959 91.1258 342.585 90.9042 343.166C90.6826 343.748 90.3291 344.271 89.8715 344.693C86.7323 347.599 77.6208 355.161 67.9534 355.162Z" fill="#F7F7F7"/>
<path d="M35.5609 272.777L11.5613 270.136C10.8784 270.061 10.2198 269.839 9.63017 269.487C9.04059 269.134 8.53394 268.658 8.1447 268.091C7.75546 267.525 7.49279 266.881 7.37458 266.204C7.25638 265.526 7.28541 264.832 7.45971 264.167L13.5685 240.865C13.9725 237.371 15.7445 234.18 18.496 231.991C21.2475 229.802 24.754 228.795 28.2467 229.189C31.7393 229.584 34.933 231.349 37.1276 234.096C39.3222 236.844 40.3384 240.351 39.9536 243.847L40.8605 267.842C40.8863 268.529 40.7638 269.214 40.5014 269.849C40.2389 270.484 39.8428 271.056 39.3398 271.524C38.8369 271.992 38.239 272.347 37.5869 272.563C36.9348 272.779 36.2438 272.852 35.5609 272.777V272.777Z" fill="#F7F7F7"/>
<path d="M91.0524 346.03C92.0381 345.162 92.8216 344.088 93.3476 342.884C93.8737 341.68 94.1296 340.375 94.0973 339.061C94.065 337.747 93.7452 336.457 93.1605 335.28C92.5758 334.103 91.7404 333.069 90.7132 332.25L84.7993 254.562L67.4175 258.477L77.6206 334.134C76.3608 335.953 75.8112 338.17 76.0759 340.367C76.3406 342.563 77.4012 344.587 79.0569 346.053C80.7125 347.519 82.8481 348.327 85.0589 348.323C87.2698 348.319 89.4023 347.503 91.0524 346.03Z" fill="#FFC9C9"/>
<path d="M60.7535 267.893C60.2503 267.425 59.854 266.854 59.5916 266.219C59.3293 265.583 59.2069 264.899 59.233 264.212L60.1399 240.217C59.7551 236.72 60.7714 233.214 62.9659 230.466C65.1605 227.718 68.3542 225.954 71.8469 225.559C75.3395 225.164 78.846 226.172 81.5975 228.36C84.3491 230.549 86.1211 233.741 86.525 237.235L92.6338 260.536C92.8081 261.201 92.8372 261.896 92.719 262.573C92.6008 263.251 92.3381 263.894 91.9488 264.461C91.5596 265.027 91.053 265.503 90.4634 265.856C89.8738 266.209 89.2151 266.431 88.5323 266.506L64.5326 269.147C63.8497 269.222 63.1585 269.149 62.5063 268.933C61.8541 268.717 61.2562 268.362 60.7535 267.893Z" fill="#F7F7F7"/>
<path d="M47.3819 208.143C47.0169 208.142 46.6531 208.1 46.2978 208.016L46.1935 207.991C28.1377 205.226 24.1475 194.76 23.2716 190.389C22.365 185.863 23.3973 181.495 25.73 179.799C24.4582 175.78 24.6624 172.217 26.3381 169.203C29.2606 163.948 35.6033 162.171 36.4539 161.954C41.5192 158.214 47.5797 160.71 48.6824 161.217C58.4806 157.589 62.2256 160.609 62.9029 161.283C67.2828 162.07 69.9525 163.763 70.8388 166.317C72.5035 171.112 67.2389 177.078 67.014 177.329L66.8972 177.46L59.0542 177.833C58.31 177.869 57.5816 178.061 56.9161 178.396C56.2507 178.732 55.6632 179.203 55.1916 179.781C54.7201 180.358 54.375 181.028 54.1789 181.747C53.9828 182.467 53.94 183.219 54.0532 183.956C54.2654 184.907 54.5336 185.845 54.8562 186.764C56.1957 190.953 57.1993 194.532 55.9049 195.893C55.6116 196.156 55.2502 196.331 54.862 196.399C54.4738 196.466 54.0745 196.423 53.7098 196.273C52.4836 195.946 51.6509 196.014 51.2361 196.478C50.5921 197.197 50.7887 199.017 51.7898 201.604C52.1038 202.422 52.1884 203.31 52.0342 204.172C51.8801 205.035 51.4931 205.838 50.9152 206.497C50.4801 207.01 49.939 207.423 49.329 207.708C48.719 207.992 48.0547 208.14 47.3819 208.143Z" fill="#83806B"/>
<path d="M117.894 497H0.836135C0.61438 497 0.401695 496.912 0.24489 496.755C0.088086 496.598 7.62939e-06 496.385 7.62939e-06 496.163C7.62939e-06 495.941 0.088086 495.728 0.24489 495.571C0.401695 495.415 0.61438 495.326 0.836135 495.326H117.894C118.116 495.326 118.328 495.415 118.485 495.571C118.642 495.728 118.73 495.941 118.73 496.163C118.73 496.385 118.642 496.598 118.485 496.755C118.328 496.912 118.116 497 117.894 497Z" fill="#CCCCCC"/>
<path d="M525.924 497H408.866C408.645 497 408.432 496.912 408.275 496.755C408.118 496.598 408.03 496.385 408.03 496.163C408.03 495.941 408.118 495.728 408.275 495.571C408.432 495.415 408.645 495.326 408.866 495.326H525.924C526.146 495.326 526.358 495.415 526.515 495.571C526.672 495.728 526.76 495.941 526.76 496.163C526.76 496.385 526.672 496.598 526.515 496.755C526.358 496.912 526.146 497 525.924 497Z" fill="#CCCCCC"/>
<path d="M358.458 354.796H156.116C148.357 354.787 140.918 351.699 135.432 346.208C129.946 340.718 126.86 333.274 126.851 325.509V29.2874C126.86 21.5226 129.946 14.0784 135.432 8.58782C140.918 3.09727 148.357 0.00881245 156.116 0H358.458C366.217 0.00881245 373.656 3.09727 379.142 8.58782C384.628 14.0784 387.714 21.5226 387.723 29.2874V325.509C387.714 333.274 384.628 340.718 379.142 346.208C373.656 351.699 366.217 354.787 358.458 354.796Z" fill="white"/>
<path d="M326.686 235.161H187.889C173.71 235.092 173.652 213.479 187.889 213.405L326.686 213.404C340.854 213.471 340.931 235.087 326.686 235.161Z" fill="#CCCCCC"/>
<path d="M326.686 61.0605H187.889C173.71 60.9921 173.652 39.3782 187.889 39.3041L326.686 39.3041C340.854 39.3705 340.931 60.9862 326.686 61.0605Z" fill="#CCCCCC"/>
<path d="M326.686 275.326H187.889C173.71 275.258 173.652 253.644 187.889 253.57L326.686 253.57C340.854 253.637 340.931 275.252 326.686 275.326Z" fill="#CCCCCC"/>
<path d="M326.686 315.492H187.889C173.71 315.424 173.652 293.81 187.889 293.736L326.686 293.736C340.854 293.802 340.931 315.418 326.686 315.492Z" fill="#CCCCCC"/>
<path d="M324.177 187.297H190.397C186.739 187.293 183.232 185.837 180.646 183.248C178.06 180.66 176.605 177.15 176.601 173.49V98.5143C176.605 94.8537 178.06 91.3443 180.646 88.7559C183.232 86.1675 186.739 84.7115 190.397 84.7074H324.177C327.835 84.7115 331.341 86.1675 333.928 88.7559C336.514 91.3443 337.969 94.8537 337.973 98.5143V173.49C337.969 177.15 336.514 180.66 333.928 183.248C331.341 185.837 327.835 187.293 324.177 187.297Z" fill="#F7F7F7"/>
<path d="M358.458 354.796H156.116C148.357 354.787 140.918 351.699 135.432 346.208C129.946 340.718 126.86 333.274 126.851 325.509V29.2874C126.86 21.5226 129.946 14.0784 135.432 8.58782C140.918 3.09727 148.357 0.00881245 156.116 0H358.458C366.217 0.00881245 373.656 3.09727 379.142 8.58782C384.628 14.0784 387.714 21.5226 387.723 29.2874V325.509C387.714 333.274 384.628 340.718 379.142 346.208C373.656 351.699 366.217 354.787 358.458 354.796ZM156.116 5.0207C149.687 5.02797 143.524 7.58698 138.978 12.1363C134.432 16.6856 131.875 22.8537 131.868 29.2874V325.509C131.875 331.943 134.432 338.111 138.978 342.66C143.524 347.209 149.687 349.768 156.116 349.776H358.458C364.887 349.768 371.05 347.209 375.596 342.66C380.142 338.111 382.699 331.943 382.706 325.509V29.2874C382.699 22.8537 380.142 16.6856 375.596 12.1363C371.05 7.58695 364.887 5.02796 358.458 5.0207H156.116Z" fill="#E6E6E6"/>
</g>
<defs>
<clipPath id="clip0">
<rect width="528" height="497" fill="white"/>
</clipPath>
</defs>
</svg>
